HIERARCHY
ROOT Hips
{
    OFFSET 0.000000 0.000000 0.000000
    CHANNELS 6 Xposition Yposition Zposition Zrotation Xrotation Yrotation
    JOINT Spine
    {
        OFFSET -0.000000 0.070388 0.000000
        CHANNELS 3 Zrotation Xrotation Yrotation
        JOINT Spine1
        {
            OFFSET -0.000000 0.188704 0.000000
            CHANNELS 3 Zrotation Xrotation Yrotation
            JOINT Neck
            {
                OFFSET -0.000000 0.205872 0.000000
                CHANNELS 3 Zrotation Xrotation Yrotation
                JOINT Head
                {
                    OFFSET -0.000000 0.093136 0.017168
                    CHANNELS 3 Zrotation Xrotation Yrotation
                    End Site
                    {
                        OFFSET -0.000000 0.171679 0.000000
                    }
                }
            }
            JOINT LeftShoulder
            {
                OFFSET 0.034319 0.171129 0.000640
                CHANNELS 3 Zrotation Xrotation Yrotation
                JOINT LeftArm
                {
                    OFFSET 0.104933 0.000000 0.000000
                    CHANNELS 3 Zrotation Xrotation Yrotation
                    JOINT LeftForeArm
                    {
                        OFFSET 0.282381 0.000000 0.000000
                        CHANNELS 3 Zrotation Xrotation Yrotation
                        JOINT LeftHand
                        {
                            OFFSET 0.191019 0.000000 0.000000
                            CHANNELS 3 Zrotation Xrotation Yrotation
                            End Site
                            {
                                OFFSET 0.000000 -0.128759 0.000000
                            }
                        }
                    }
                }
            }
            JOINT RightShoulder
            {
                OFFSET -0.034352 0.171129 0.000640
                CHANNELS 3 Zrotation Xrotation Yrotation
                JOINT RightArm
                {
                    OFFSET -0.104933 0.000000 0.000000
                    CHANNELS 3 Zrotation Xrotation Yrotation
                    JOINT RightForeArm
                    {
                        OFFSET -0.282381 0.000000 0.000000
                        CHANNELS 3 Zrotation Xrotation Yrotation
                        JOINT RightHand
                        {
                            OFFSET -0.191019 0.000000 0.000000
                            CHANNELS 3 Zrotation Xrotation Yrotation
                            End Site
                            {
                                OFFSET -0.000000 -0.128759 0.000000
                            }
                        }
                    }
                }
            }
        }
    }
    JOINT LeftUpLeg
    {
        OFFSET 0.085839 0.000000 0.000000
        CHANNELS 3 Zrotation Xrotation Yrotation
        JOINT LeftLeg
        {
            OFFSET -0.000000 -0.365643 0.000000
            CHANNELS 3 Zrotation Xrotation Yrotation
            JOINT LeftFoot
            {
                OFFSET -0.000000 -0.393614 0.000000
                CHANNELS 3 Zrotation Xrotation Yrotation
                JOINT LeftToeBase
                {
                    OFFSET -0.000000 -0.055796 0.128759
                    CHANNELS 3 Zrotation Xrotation Yrotation
                    End Site
                    {
                        OFFSET -0.000000 0.000000 0.034336
                    }
                }
            }
        }
    }
    JOINT RightUpLeg
    {
        OFFSET -0.085839 0.000000 0.000000
        CHANNELS 3 Zrotation Xrotation Yrotation
        JOINT RightLeg
        {
            OFFSET -0.000000 -0.365643 0.000000
            CHANNELS 3 Zrotation Xrotation Yrotation
            JOINT RightFoot
            {
                OFFSET -0.000000 -0.393614 0.000000
                CHANNELS 3 Zrotation Xrotation Yrotation
                JOINT RightToeBase
                {
                    OFFSET -0.000000 -0.055796 0.128759
                    CHANNELS 3 Zrotation Xrotation Yrotation
                    End Site
                    {
                        OFFSET -0.000000 0.000000 0.034336
                    }
                }
            }
        }
    }
}
MOTION
Frames:    12
Frame Time:    0.010000
-0.218046    0.828115    -0.371870    14.438316    -23.228088    134.228165    -11.388787    -0.046796    -23.328783    4.916301    20.967030    -8.690687    26.199427    -4.191138    -3.728312    8.622313    6.459893    -2.883361    4.321163    0.026647    -13.857773    2.455406    27.092833    -84.568680    5.409570    6.291287    -81.354309    91.654465    -3.671721    -10.840010    18.166132    11.602417    -6.320920    53.069977    37.576721    -0.239254    -0.915698    24.236624    41.388531    -80.177704    8.683228    23.803524    17.860168    -23.619873    13.612535    9.962354    35.838322    -22.119984    9.333004    -15.445434    8.781626    0.000000    0.000000    0.000000    63.788746    -53.065102    59.984985    3.072695    22.644560    3.357563    33.659454    29.185274    -20.864128    0.000000    0.000000    0.000000    
-0.213492    0.834263    -0.375861    14.094866    -23.057451    137.813751    -11.510984    -0.399623    -23.242304    4.866107    20.283417    -8.607979    26.681797    -5.487519    -4.135299    8.054427    7.586288    -3.542628    4.085666    0.473805    -14.388611    2.458520    27.617945    -85.493904    4.648602    6.926799    -81.262085    91.317596    -3.564593    -10.829568    18.145859    10.540339    -5.781128    51.399616    38.415878    0.334838    -3.409080    23.133621    46.307240    -79.979576    8.698883    23.703201    16.610662    -24.231091    12.117963    9.684521    34.532009    -22.391956    7.979432    -13.279038    7.378808    0.000000    0.000000    0.000000    60.757851    -51.895950    57.804840    3.228045    22.196424    3.385937    37.655609    28.732874    -22.156940    0.000000    0.000000    0.000000    
-0.208373    0.840149    -0.380339    13.946430    -22.958565    141.602905    -11.404782    -0.834025    -23.018551    4.774355    19.589231    -8.470444    26.991217    -6.404355    -4.610120    7.529169    8.272042    -4.173755    3.803996    1.210430    -14.728067    2.970976    28.069363    -86.749649    4.432756    6.894962    -81.207550    91.126503    -3.603852    -10.617637    18.054831    9.726240    -5.356999    49.555592    38.863918    0.724624    -5.560275    20.954948    51.100620    -79.243530    7.884518    22.674196    15.778505    -24.419991    9.878264    8.132702    32.983055    -21.159615    7.088522    -11.378286    6.025547    0.000000    0.000000    0.000000    57.945805    -50.634853    56.001247    3.194597    21.358070    3.572775    40.426430    29.161888    -22.558990    0.000000    0.000000    0.000000    
-0.203044    0.845786    -0.385594    13.899976    -22.650810    145.602005    -11.368093    -1.141118    -22.692261    4.723767    18.952240    -8.314032    27.130024    -7.306768    -4.959304    7.121919    8.910030    -4.705117    3.518868    1.262327    -15.300323    3.198841    29.354042    -87.653107    4.581489    6.396997    -81.471725    90.868210    -3.513285    -10.277083    17.809538    8.886142    -4.903918    47.921474    38.951973    0.579613    -7.820430    19.530514    55.670021    -79.372574    8.150588    22.620256    14.827478    -24.515018    9.407492    7.682124    31.503038    -21.776077    5.996721    -9.323030    4.732689    0.000000    0.000000    0.000000    55.012436    -49.313873    54.394463    3.003782    20.302900    3.861547    42.368183    29.944790    -22.251486    0.000000    0.000000    0.000000    
-0.197391    0.851193    -0.390976    14.097866    -22.436087    149.838882    -11.162477    -1.440182    -22.321329    4.848157    18.371059    -8.175397    27.039671    -8.174248    -5.153512    6.682492    9.439458    -5.067977    3.116072    1.588097    -15.575643    4.037046    30.304861    -88.840355    4.938179    5.311872    -81.866508    90.398521    -3.813388    -9.548927    17.429319    8.260502    -4.561632    46.143822    38.634781    0.329946    -10.328270    18.268003    60.062141    -79.331833    7.696487    23.136419    14.079098    -24.640347    10.314906    7.960854    30.087393    -23.378305    5.106193    -7.293958    3.201392    0.000000    0.000000    0.000000    52.571095    -47.966457    53.003513    2.464787    19.117039    4.718575    44.314198    30.681459    -22.300749    0.000000    0.000000    0.000000    
-0.191728    0.856026    -0.396635    14.089750    -22.090275    154.122955    -11.171400    -1.936548    -22.029554    4.852703    18.004093    -8.045555    26.315876    -8.474290    -5.093755    7.067061    9.108913    -5.185991    2.757006    1.909660    -15.676368    4.880358    31.114088    -89.781746    5.411507    4.113187    -82.610855    89.972778    -3.750869    -8.843813    16.810263    7.722201    -4.074045    44.485752    37.588333    -0.406240    -12.102509    17.010061    65.037827    -79.499413    8.118683    23.514334    13.243981    -24.816645    11.655498    7.823975    28.982212    -24.630938    4.527190    -5.137589    1.639382    0.000000    0.000000    0.000000    50.146725    -46.811146    52.066967    1.910332    17.978134    5.895092    45.467976    31.358585    -22.325069    0.000000    0.000000    0.000000    
-0.185708    0.860508    -0.402842    14.446537    -21.532764    158.682022    -10.969664    -2.135717    -21.655533    4.888297    17.718678    -7.908225    25.756344    -9.223402    -4.972843    6.815683    9.576276    -5.248182    2.323937    2.290507    -15.617344    5.494334    31.526596    -90.465439    5.461307    3.320652    -83.557434    89.753983    -3.769381    -8.188723    16.066751    7.251815    -3.748403    42.959549    36.754524    -1.265527    -14.268867    16.109224    69.601013    -80.250000    8.826221    24.684898    12.743301    -24.320530    11.399967    6.200620    27.860449    -23.030170    3.974151    -3.275310    0.055942    0.000000    0.000000    0.000000    47.872250    -45.548603    51.007584    1.266122    16.896591    7.258685    45.393471    32.085907    -22.041477    0.000000    0.000000    0.000000    
-0.179778    0.864460    -0.409933    14.613358    -20.754707    163.480652    -11.049021    -2.434512    -21.418089    4.862276    17.814934    -7.818311    25.423710    -9.907447    -4.812578    6.093482    9.877495    -5.124736    2.026134    2.355474    -15.439171    5.424947    31.985439    -90.765717    5.280979    2.963065    -84.582436    89.647446    -3.852708    -7.762571    15.147365    6.960821    -3.403075    41.716766    35.528316    -2.191965    -15.510512    15.043891    73.867584    -80.947235    9.444851    25.295742    11.923662    -23.564234    10.583910    4.185744    26.742550    -20.344757    3.418293    -1.332137    -1.306404    0.000000    0.000000    0.000000    45.315620    -44.502846    49.808735    0.646909    15.989491    8.635502    45.019833    32.568024    -21.748480    0.000000    0.000000    0.000000    
-0.173722    0.867523    -0.417107    14.902531    -20.190258    168.704224    -10.873150    -2.924838    -21.396271    4.762823    17.856951    -7.781791    25.092094    -10.407968    -4.638545    5.247252    10.183987    -4.910154    1.999796    2.967763    -14.849109    7.428765    31.830364    -92.431808    6.331764    0.756849    -85.082108    89.325081    -4.066765    -6.587768    14.178009    7.118298    -3.242848    40.498268    34.262455    -2.880748    -16.517694    14.312889    77.584198    -81.614159    10.071729    26.112549    11.115285    -23.373486    10.661140    3.027273    26.430099    -18.382717    2.413878    0.204053    -2.208546    0.000000    0.000000    0.000000    42.974510    -43.914772    48.676655    0.142971    15.169551    9.829731    44.912041    32.646168    -21.898916    0.000000    0.000000    0.000000    
-0.167404    0.869792    -0.425390    15.318252    -19.397978    174.268982    -10.657013    -3.339165    -21.412378    4.647182    17.951290    -7.761242    24.664127    -10.565117    -4.551634    4.655342    10.298656    -4.751065    1.672622    2.377585    -14.904549    7.746912    32.903255    -92.611031    6.915764    -0.190523    -85.945732    88.443802    -3.752952    -6.305601    13.203600    7.349421    -3.057990    39.627281    33.062511    -3.929979    -16.843313    13.651281    80.760101    -81.659851    10.158980    26.460384    10.438917    -22.669725    11.057961    1.788148    25.789518    -16.848410    1.238975    1.679708    -2.626597    0.000000    0.000000    0.000000    40.471714    -43.353127    47.249611    -0.315777    14.456753    10.629531    46.379349    31.838923    -22.953892    0.000000    0.000000    0.000000    
-0.161382    0.871516    -0.434731    15.710255    -18.255459    179.969803    -10.494363    -3.437974    -21.333382    4.626321    17.889204    -7.727794    24.341406    -10.429261    -4.583651    3.817639    10.238650    -4.582855    1.850891    2.132617    -14.821048    7.939569    33.553604    -93.059555    7.384184    -1.165060    -86.452255    88.297287    -3.933720    -5.842353    12.205890    7.908269    -2.968288    38.848732    31.612492    -4.926732    -16.638433    13.690093    83.530396    -81.807655    10.135245    26.993217    9.623410    -21.696512    11.915605    1.153563    25.629578    -15.652349    -0.419845    3.035653    -2.684401    0.000000    0.000000    0.000000    37.798271    -42.625988    45.597698    -0.757448    13.669904    11.536658    43.633739    34.124771    -20.375872    0.000000    0.000000    0.000000    
-0.155545    0.872688    -0.444764    16.122318    -17.076078    -174.072083    -10.322525    -3.607290    -21.304371    4.627731    17.946327    -7.717067    24.346500    -10.584655    -4.628075    2.712359    10.703273    -4.435504    1.992332    2.077754    -14.697298    4.178351    33.393707    -91.018166    5.416663    2.100797    -87.518669    89.173347    -3.972929    -7.304674    11.442879    8.496119    -2.830961    38.179707    30.399784    -5.992893    -15.777545    13.883474    85.631134    -82.060509    9.740493    26.992393    8.867064    -20.794514    13.196342    1.104454    25.884119    -15.275288    -1.714517    3.917819    -2.531866    0.000000    0.000000    0.000000    35.267384    -42.014011    43.754543    -1.280732    13.048070    12.789650    42.425987    35.882999    -18.721561    0.000000    0.000000    0.000000    
